<svg id="Layer_1" data-name="Layer 1" xmlns="http://www.w3.org/2000/svg" viewBox="0 0 552 476"><defs><style>.cls-1{fill:#fff;}</style></defs><path class="cls-1" d="M44.29,663.26v-476h552v476ZM192.73,412.15c5.68,6.09,11.13,11.9,16.54,17.74Q246.41,470,283.5,510.07c14.58,15.84,29.35,31.43,49.57,40.25,49.6,21.65,99,19.82,147.91-2.1,12.41-5.55,23.54-13.31,32-24.13,20.17-25.78,21.23-54.35,10.95-84.05-6.09-17.61-18.09-31.44-31.87-43.39-15.57-13.49-32.12-25.84-48.05-38.92-9.13-7.49-18.08-15.26-23.81-25.92-13.77-25.6-.51-53.63,28-58.79a94.2,94.2,0,0,1,16.38-1c27.42,0,48.64,23.44,48.62,45.46a4.42,4.42,0,0,0,.42,2.42c.82,1.12,1.89,2.7,3,2.8a4.14,4.14,0,0,0,3.2-2.32,29.78,29.78,0,0,0,1.26-7.8c.54-14.29,1-28.59,1.42-42.89.24-7.2-.19-8.27-7.1-9.51-12.08-2.18-24.2-4.52-36.41-5.57-19.73-1.71-39.16-.07-57.77,7.75C391,275,373.6,302.73,376.85,334.3c2.24,21.68,12.74,39.68,26.61,55.88C417,406,433.56,418.27,449.82,431c14.67,11.46,27.84,24.29,35.22,41.92,9.59,22.95,4.09,43.11-16.08,57.57-18.11,13-38.51,14.65-59.64,10.6-34.45-6.59-63.66-23.49-87.75-48.41-30.27-31.32-59.4-63.75-89-95.76-4-4.35-7.66-9-11.63-13.76,2.22-2.39,4-4.37,5.82-6.25,9.56-9.73,19-19.57,28.75-29.12,19.95-19.56,39.66-39.39,60.22-58.28,15-13.78,32.54-23.11,53.75-23.19.17,0,.38,0,.49-.06,1.42-1.09,2.82-2.2,4.22-3.31-1.39-1.17-2.61-2.92-4.2-3.38-2.16-.62-4.61-.29-6.93-.29q-38.91,0-77.82,0a16.41,16.41,0,0,0-5.4.5c-1.17.41-2.68,1.86-2.73,2.9s1.27,2.67,2.4,3.24c8.15,4.16,9.79,8.08,4.73,15.88A145,145,0,0,1,267.88,303c-25.14,26.35-50.67,52.34-76,78.5-1.9,2-3.5,4.23-5.24,6.36l-1.36-1a36.69,36.69,0,0,1-.33-3.76c.14-27.62.2-55.24.54-82.86a144.77,144.77,0,0,1,1.75-19.82c1.19-7.88,6.22-12.23,14.1-13.26,2.3-.3,4.63-.43,6.94-.76,2.87-.42,7.56,1.26,7.59-3.26s-4.74-3.86-7.82-3.87q-48.17-.18-96.34.05c-2,0-4,2-6,3,1.88,1.23,3.67,3.33,5.66,3.55,13,1.42,22.1,8.63,24.79,21.51a107.56,107.56,0,0,1,1.81,21.31c.16,50.41.11,100.83.13,151.24v6.4Z" transform="translate(-44.29 -187.26)"/><path d="M192.73,412.15l-54.67,54.21V460c0-50.41,0-100.83-.13-151.24a107.56,107.56,0,0,0-1.81-21.31c-2.69-12.88-11.77-20.09-24.79-21.51-2-.22-3.78-2.32-5.66-3.55,2-1.06,4-3,6-3q48.17-.27,96.34-.05c3.08,0,7.86-.64,7.82,3.87s-4.72,2.84-7.59,3.26c-2.31.33-4.64.46-6.94.76-7.88,1-12.91,5.38-14.1,13.26a144.77,144.77,0,0,0-1.75,19.82c-.34,27.62-.4,55.24-.54,82.86a36.69,36.69,0,0,0,.33,3.76l1.36,1c1.74-2.13,3.34-4.39,5.24-6.36,25.35-26.16,50.88-52.15,76-78.5a145,145,0,0,0,16.4-21.24c5.06-7.8,3.42-11.72-4.73-15.88-1.13-.57-2.45-2.17-2.4-3.24s1.56-2.49,2.73-2.9a16.41,16.41,0,0,1,5.4-.5q38.91,0,77.82,0c2.32,0,4.77-.33,6.93.29,1.59.46,2.81,2.21,4.2,3.38-1.4,1.11-2.8,2.22-4.22,3.31-.11.09-.32.06-.49.06-21.21.08-38.75,9.41-53.75,23.19-20.56,18.89-40.27,38.72-60.22,58.28-9.74,9.55-19.19,19.39-28.75,29.12-1.85,1.88-3.6,3.86-5.82,6.25,4,4.72,7.62,9.41,11.63,13.76,29.56,32,58.69,64.44,89,95.76,24.09,24.92,53.3,41.82,87.75,48.41,21.13,4.05,41.53,2.39,59.64-10.6C489.13,516,494.63,495.84,485,472.89c-7.38-17.63-20.55-30.46-35.22-41.92-16.26-12.7-32.86-25-46.36-40.79C389.59,374,379.09,356,376.85,334.3c-3.25-31.57,14.15-59.3,44.33-72,18.61-7.82,38-9.46,57.77-7.75,12.21,1.05,24.33,3.39,36.41,5.57,6.91,1.24,7.34,2.31,7.1,9.51-.47,14.3-.88,28.6-1.42,42.89a29.78,29.78,0,0,1-1.26,7.8,4.14,4.14,0,0,1-3.2,2.32c-1.09-.1-2.16-1.68-3-2.8a4.42,4.42,0,0,1-.42-2.42c0-22-21.2-45.46-48.62-45.46a94.2,94.2,0,0,0-16.38,1c-28.49,5.16-41.75,33.19-28,58.79,5.73,10.66,14.68,18.43,23.81,25.92,15.93,13.08,32.48,25.43,48.05,38.92,13.78,12,25.78,25.78,31.87,43.39,10.28,29.7,9.22,58.27-10.95,84.05-8.46,10.82-19.59,18.58-32,24.13C432,570.14,382.67,572,333.07,550.32c-20.22-8.82-35-24.41-49.57-40.25q-37-40.21-74.23-80.18C203.86,424.05,198.41,418.24,192.73,412.15Z" transform="translate(-44.29 -187.26)"/></svg>