<svg id="Layer_1" data-name="Layer 1" xmlns="http://www.w3.org/2000/svg" viewBox="0 0 425.59 227.72"><defs><style>.cls-1{fill:#f47b53;}.cls-2{fill:#616160;}</style></defs><path class="cls-1" d="M630.64,293.74c-13.91,0-27.83.18-41.73-.09-5-.1-7.44,1.16-7.57,6.6-.12,4.45-1.22,8.88-2.06,13.28-1.59,8.27-1.5,8.48,6.67,8.49,15.93,0,31.87.18,47.79-.09,5.27-.09,6.9,1.55,7,6.92.07,5.88-3,5.83-7.16,5.81-17.95-.11-35.91.16-53.85-.18-5.31-.1-7.89,1.77-10.22,6.46-13.55,27.22-34.59,46.59-62.7,58.13-2.34,1-6.26,4.62-7.58.18-1.12-3.79-2.52-9.15,4.13-11.67,14.71-5.58,27-14.9,37.78-26.32,50.94-53.92,32.28-143.81-35.89-172.89-2.35-1-5.81-1.1-6.19-4.38s-1.66-7.33.72-9.67c1.91-1.88,5,.87,7.36,1.86,28.12,11.58,49,31.11,62.57,58.3,2.38,4.77,5.27,6.35,10.42,6.27,17.95-.27,35.9,0,53.85-.19,4.79-.06,6.69,1.08,6.76,6.34.08,5.65-2.54,6.06-7,6-15.71-.18-31.42-.08-47.12-.07-9.14,0-9.07,0-7.32,8.58a82.52,82.52,0,0,1,2.05,13.28c.2,5.35,2.61,6.71,7.61,6.68,27.82-.18,55.65.05,83.47-.21,5.29-.05,6.73,1.44,6.85,6.73.12,5.74-2.52,6-6.9,5.91C658.46,293.62,644.55,293.74,630.64,293.74Z" transform="translate(-253.68 -173.68)"/><path class="cls-1" d="M301.88,281.46c13.91,0,27.83-.17,41.73.09,5,.1,7.41-1.27,7.71-6.62a62.58,62.58,0,0,1,2.51-15.24c2.07-6.56-.48-7.55-6.3-7.44-15.93.3-31.86,0-47.79.16-4.34.05-7-.17-7-5.9,0-5.93,3-5.76,7.15-5.74,17.73.11,35.46-.13,53.18.16,5,.08,7.58-1.64,9.75-6.09,13-26.66,33.31-45.91,60.49-57.73,2.31-1,6.21-4.91,7.56-.41,1.11,3.69,2.94,9.28-3.5,12.05A104,104,0,0,0,385.79,221c-42.65,54.78-23.7,134.56,39,164.42,2.31,1.1,5.76,1.2,6.27,4.38s1.61,7.4-.6,9.76-5.34-.67-7.83-1.79c-26.75-12.06-47-31.06-59.81-57.57-2.08-4.29-4.61-5.8-9.3-5.74-18.39.24-36.8,0-55.19.2-4.82.06-6.15-1.68-6.17-6.26s1.54-6.26,6.25-6.19c16.6.23,33.21,0,49.81.16,5.07,0,7.57-.66,5.69-6.71a75.05,75.05,0,0,1-2.65-15.9c-.41-4.84-2.45-6.38-7.27-6.34-27.82.19-55.64-.1-83.46.24-6,.08-7.09-2.07-6.8-7.34.2-3.78,1.28-5,5.08-5C273.16,281.57,287.52,281.46,301.88,281.46Z" transform="translate(-253.68 -173.68)"/><path class="cls-2" d="M422.92,286c8.66-10.47,17.36-20.9,25.94-31.43,2.39-2.93.25-3.83-2.34-4.26-2-.32-3.49-1.17-3.09-3.5s2.43-2.27,4.21-2.28c6.5,0,13,0,19.51,0,1.92,0,3.63.16,3.71,2.72s-1.54,3.06-3.48,3c-4.57-.07-7.26,2.68-9.95,5.9-5.89,7.06-12,14-18.11,20.81-2.07,2.31-2.62,4.1-.7,7,6.59,9.89,12.86,20,19.23,30,3.15,5,6.23,9.92,13,10.49,1.76.15,3.76,1,3.27,3.39-.4,1.93-2.29,1.76-3.84,2-11.75,1.73-14.48.42-20.67-10-5.36-9.06-10.78-18.1-16.07-27.21-2.38-4.1-4.39-4-7.54-.52-3.49,3.87-5.81,7.72-5.25,13.18a66.09,66.09,0,0,1,0,12.1c-.35,4.41,1.13,6.78,5.69,7.2,1.86.17,4.63.17,4.26,3.07-.35,2.67-3,2.3-4.93,2.33-6.72.11-13.45.07-20.17.06-2,0-4.39.31-4.62-2.56-.2-2.52,2-2.7,3.73-2.92,4.15-.54,5.32-2.78,5.28-6.9-.2-20-.17-40,0-59.94,0-4.41-.62-7.56-5.94-7.52-2.13,0-3.3-1.18-3-3.48.3-2.11,1.86-2.21,3.51-2.21,7.17,0,14.35,0,21.52,0,1.7,0,3.17.16,3.43,2.28s-.69,3.51-2.94,3.48c-5.43-.06-5.88,3.34-5.8,7.63.18,9.15.05,18.3.05,27.46Z" transform="translate(-253.68 -173.68)"/><path class="cls-2" d="M480.27,318.58c1.32-2.74-2.11-7.66,2.51-8.41s3.79,4.71,5,7.47c1.24,2.93,2.87,5,5.72,6.15,6.16,2.43,12.44,3.58,19,1.76,11.5-3.19,14.86-14.84,6.67-23.54-5.48-5.82-12.78-9-19.49-13-4.45-2.65-8.83-5.35-12.47-9.08-10.24-10.48-7.71-25.38,5.51-31.8,10.53-5.11,21.33-4.21,32.06-.75,3.52,1.13,6,13.55,3.11,15.87-3.48,2.76-4.45-.78-5.56-3.1-4.34-9-11.42-12-21.18-8.93-10.65,3.4-13.45,14.16-5.76,22.22,5.22,5.46,12.15,8.33,18.51,12.05,4.26,2.5,8.53,4.93,12.27,8.2,6.49,5.68,9,12.8,7,21.17C531.26,323,525.57,328,517.8,330.3c-11.35,3.39-22.61,1.79-33.76-1.42C478,327.15,481.54,322.11,480.27,318.58Z" transform="translate(-253.68 -173.68)"/></svg>